<?xml version="1.0" encoding="UTF-8" standalone="no"?>
<svg
   width="23.838747"
   height="18.412472"
   id="emoji"
   viewBox="0 0 53.637181 41.428061"
   version="1.1"
   sodipodi:docname="brain.svg"
   inkscape:version="1.4.4 (unknown)"
   xmlns:inkscape="http://www.inkscape.org/namespaces/inkscape"
   xmlns:sodipodi="http://sodipodi.sourceforge.net/DTD/sodipodi-0.dtd"
   xmlns="http://www.w3.org/2000/svg"
   xmlns:svg="http://www.w3.org/2000/svg">
  <defs
     id="defs9" />
  <sodipodi:namedview
     id="namedview9"
     pagecolor="#ffffff"
     bordercolor="#000000"
     borderopacity="0.25"
     inkscape:showpageshadow="2"
     inkscape:pageopacity="0.0"
     inkscape:pagecheckerboard="0"
     inkscape:deskcolor="#d1d1d1"
     inkscape:zoom="34.21875"
     inkscape:cx="11.821005"
     inkscape:cy="9.0739726"
     inkscape:window-width="3434"
     inkscape:window-height="1326"
     inkscape:window-x="0"
     inkscape:window-y="63"
     inkscape:window-maximized="1"
     inkscape:current-layer="emoji" />
  <g
     id="color"
     transform="translate(-9.4205554,-15.571938)">
    <line
       x1="16"
       x2="25.875"
       y1="35"
       y2="35"
       fill="#ea5a47"
       stroke="none"
       id="line1" />
    <path
       fill="#ea5a47"
       stroke="none"
       d="m 25.875,35 c 3.4167,0 4.75,-2.9167 4.75,-6.1667"
       id="path1" />
    <line
       x1="16"
       x2="19.75"
       y1="45.5"
       y2="45.5"
       fill="#ea5a47"
       stroke="none"
       id="line2" />
    <line
       x1="35.299702"
       x2="35.299702"
       y1="45.5"
       y2="39.4375"
       fill="#ea5a47"
       stroke="none"
       id="line3" />
    <path
       fill="#ea5a47"
       stroke="none"
       d="m 35.2997,39.4375 c 0,-2.2455 1.2003,-5.25 5.0756,-5.25"
       id="path3" />
    <line
       x1="58.458302"
       x2="49.875"
       y1="34.541698"
       y2="34.541698"
       fill="#ea5a47"
       stroke="none"
       id="line4" />
    <path
       fill="#ffa7c0"
       stroke="none"
       d="m 40.375,45.5 c 0,0 0.1642,10.5 -7.9583,10.5 H 16 C 8.7917,56 8.3333,45.5 16,45.5 8.7917,45.5 8.3333,35 16,35 7.8333,27.75 17.875,21.4375 22.5,26.3125 17.701,19.6875 27.875,16 31.375,21.3125 30.9627,16 36.2222,15.0417 41.1003,19.024 l -0.4336,0.351 C 43.0417,17 50.8443,18.2917 50.8443,24.6891 l -2.2192,1.6234 c 6.8646,-6.8646 14.2083,4.1875 8.5,8.2292 h 1.3333 c 4.75,0 5.2917,10.9583 -1.3333,10.9583 H 29.2917"
       id="path4" />
    <path
       fill="#ea5a47"
       stroke="none"
       d="M 40.6667,19.375 C 38.25,21.7917 40.3845,22.5532 36.396,26.5417"
       id="path5" />
  </g>
  <g
     id="line"
     transform="translate(-9.4205554,-15.571938)">
    <line
       x1="16"
       x2="25.875"
       y1="35"
       y2="35"
       fill="none"
       stroke="#000000"
       stroke-linecap="round"
       stroke-linejoin="round"
       stroke-miterlimit="10"
       stroke-width="2"
       id="line5" />
    <path
       fill="none"
       stroke="#000000"
       stroke-linecap="round"
       stroke-linejoin="round"
       stroke-miterlimit="10"
       stroke-width="2"
       d="m 25.875,35 c 3.4167,0 4.75,-2.9167 4.75,-6.1667"
       id="path6" />
    <line
       x1="16"
       x2="19.75"
       y1="45.5"
       y2="45.5"
       fill="none"
       stroke="#000000"
       stroke-linecap="round"
       stroke-linejoin="round"
       stroke-miterlimit="10"
       stroke-width="2"
       id="line6" />
    <line
       x1="35.299702"
       x2="35.299702"
       y1="45.5"
       y2="39.4375"
       fill="none"
       stroke="#000000"
       stroke-linecap="round"
       stroke-linejoin="round"
       stroke-miterlimit="10"
       stroke-width="2"
       id="line7" />
    <path
       fill="none"
       stroke="#000000"
       stroke-linecap="round"
       stroke-linejoin="round"
       stroke-miterlimit="10"
       stroke-width="2"
       d="m 35.2997,39.4375 c 0,-2.2455 1.2003,-5.25 5.0756,-5.25"
       id="path7" />
    <line
       x1="58.458302"
       x2="49.875"
       y1="34.541698"
       y2="34.541698"
       fill="none"
       stroke="#000000"
       stroke-linecap="round"
       stroke-linejoin="round"
       stroke-miterlimit="10"
       stroke-width="2"
       id="line8" />
    <path
       fill="none"
       stroke="#000000"
       stroke-linecap="round"
       stroke-linejoin="round"
       stroke-miterlimit="10"
       stroke-width="2"
       d="m 40.375,45.5 c 0,0 0.1642,10.5 -7.9583,10.5 H 16 C 8.7917,56 8.3333,45.5 16,45.5 8.7917,45.5 8.3333,35 16,35 7.8333,27.75 17.875,21.4375 22.5,26.3125 17.701,19.6875 27.875,16 31.375,21.3125 30.9627,16 36.2222,15.0417 41.1003,19.024 l -0.4336,0.351 C 43.0417,17 50.8443,18.2917 50.8443,24.6891 l -2.2192,1.6234 c 6.8646,-6.8646 14.2083,4.1875 8.5,8.2292 h 1.3333 c 4.75,0 5.2917,10.9583 -1.3333,10.9583 H 29.2917"
       id="path8" />
    <path
       fill="none"
       stroke="#000000"
       stroke-linecap="round"
       stroke-linejoin="round"
       stroke-miterlimit="10"
       stroke-width="2"
       d="M 40.6667,19.375 C 38.25,21.7917 40.3845,22.5532 36.396,26.5417"
       id="path9" />
  </g>
</svg>
