<?xml version="1.0" encoding="UTF-8" standalone="no"?>
<!-- Generator: Adobe Illustrator 27.5.0, SVG Export Plug-In . SVG Version: 6.00 Build 0)  -->

<svg
   version="1.1"
   id="Capa_1"
   x="0px"
   y="0px"
   viewBox="0 0 2335.2488 2164.569"
   xml:space="preserve"
   sodipodi:docname="currency_dark.svg"
   width="2335.2488"
   height="2164.5691"
   inkscape:version="1.4.4 (unknown)"
   xmlns:inkscape="http://www.inkscape.org/namespaces/inkscape"
   xmlns:sodipodi="http://sodipodi.sourceforge.net/DTD/sodipodi-0.dtd"
   xmlns="http://www.w3.org/2000/svg"
   xmlns:svg="http://www.w3.org/2000/svg"><defs
   id="defs26" /><sodipodi:namedview
   id="namedview26"
   pagecolor="#ffffff"
   bordercolor="#000000"
   borderopacity="0.25"
   inkscape:showpageshadow="2"
   inkscape:pageopacity="0.0"
   inkscape:pagecheckerboard="0"
   inkscape:deskcolor="#d1d1d1"
   inkscape:zoom="0.25801131"
   inkscape:cx="684.07854"
   inkscape:cy="1439.8594"
   inkscape:window-width="3434"
   inkscape:window-height="1326"
   inkscape:window-x="0"
   inkscape:window-y="63"
   inkscape:window-maximized="1"
   inkscape:current-layer="Capa_1" />
<g
   id="g26"
   transform="matrix(1.2512873,0,0,1.8281957,-159.55915,-856.80951)">
	<polygon
   style="fill:#a3dba8"
   points="127.516,1150.086 146.078,1162.68 127.516,1170.414 127.516,1205.023 146.078,1217.617 127.516,1225.348 127.516,1259.961 706.465,1652.656 1993.793,1117.355 1993.793,1081.957 1975.977,1069.828 1993.793,1062.418 1993.793,1027.02 1975.977,1014.891 1993.793,1007.481 1993.793,972.086 1975.977,959.953 1993.793,952.547 1993.793,917.152 1975.977,905.019 1993.793,897.613 1993.793,862.215 1415.77,468.664 127.516,1005.609 127.516,1040.219 146.078,1052.809 127.516,1060.547 127.516,1095.152 146.078,1107.742 127.516,1115.484 "
   id="polygon1" />
	<g
   id="g25">
		<polygon
   style="fill:#6fbf87"
   points="127.516,1259.961 706.465,1652.656 706.465,1617.258 127.516,1225.348 "
   id="polygon2" />
		<polygon
   style="fill:#a3dba8"
   points="1993.793,1117.355 1993.793,1081.957 706.465,1617.258 706.465,1652.656 "
   id="polygon3" />
		<polygon
   style="fill:#78c898"
   points="1993.793,1081.957 1975.977,1069.828 706.465,1597.719 146.078,1217.617 127.516,1225.348 706.465,1617.258 "
   id="polygon4" />
		<polygon
   style="fill:#6fbf87"
   points="706.465,1597.719 706.465,1562.324 127.516,1170.414 127.516,1205.023 146.078,1217.617 "
   id="polygon5" />
		<polygon
   style="fill:#a3dba8"
   points="706.465,1562.324 706.465,1597.719 1975.977,1069.828 1993.793,1062.418 1993.793,1027.02 "
   id="polygon6" />
		<polygon
   style="fill:#78c898"
   points="1993.793,1027.02 1975.977,1014.891 706.465,1542.789 146.078,1162.68 127.516,1170.414 706.465,1562.324 "
   id="polygon7" />
		<polygon
   style="fill:#6fbf87"
   points="706.465,1542.789 706.465,1507.391 127.516,1115.484 127.516,1150.086 146.078,1162.68 "
   id="polygon8" />
		<polygon
   style="fill:#a3dba8"
   points="706.465,1507.391 706.465,1542.789 1975.977,1014.891 1993.793,1007.481 1993.793,972.086 "
   id="polygon9" />
		<polygon
   style="fill:#78c898"
   points="1993.793,972.086 1975.977,959.953 706.465,1487.852 146.078,1107.742 127.516,1115.484 706.465,1507.391 "
   id="polygon10" />
		<polygon
   style="fill:#6fbf87"
   points="706.465,1487.852 706.465,1452.453 127.516,1060.547 127.516,1095.152 146.078,1107.742 "
   id="polygon11" />
		<polygon
   style="fill:#a3dba8"
   points="706.465,1452.453 706.465,1487.852 1975.977,959.953 1993.793,952.547 1993.793,917.152 "
   id="polygon12" />
		<polygon
   style="fill:#78c898"
   points="1993.793,917.152 1975.977,905.019 706.465,1432.914 146.078,1052.809 127.516,1060.547 706.465,1452.453 "
   id="polygon13" />
		<polygon
   style="fill:#6fbf87"
   points="706.465,1432.914 706.465,1397.523 127.516,1005.609 127.516,1040.219 146.078,1052.809 "
   id="polygon14" />
		<polygon
   style="fill:#a3dba8"
   points="1993.793,897.613 1993.793,862.215 706.465,1397.523 706.465,1432.914 1975.977,905.019 "
   id="polygon15" />
		<path
   style="fill:#78c898"
   d="M 1993.793,862.215 1415.77,468.664 127.516,1005.609 706.465,1397.523 Z M 653.207,1287.461 318.547,1058.672 c 9.07,-12.09 16.281,-25.594 15.219,-41.051 -0.887,-13.184 -8.332,-25.438 -16.723,-36.566 l 1014.18,-423.758 c 22.938,16.184 48.352,27.008 76.805,27.578 17.578,0.352 34.316,-4.438 49.773,-12.117 L 1786.75,798.82 c -20.723,26.184 -7.102,56.258 17.52,76.102 L 763.617,1308.891 c -25.832,-33.418 -72.426,-39.43 -110.41,-21.43 z"
   id="path15" />
		<path
   style="fill:#a3dba8"
   d="M 763.617,1308.891 1804.27,874.922 c -24.621,-19.844 -38.242,-49.918 -17.52,-76.102 L 1457.801,572.757 c -15.457,7.68 -32.195,12.469 -49.773,12.117 -28.453,-0.57 -53.867,-11.394 -76.805,-27.578 L 317.043,981.055 c 8.391,11.129 15.836,23.383 16.723,36.566 1.063,15.457 -6.148,28.961 -15.219,41.051 l 334.66,228.789 c 37.984,-18 84.578,-11.988 110.41,21.43 z m 721.164,-575.274 c 42.207,0 76.426,18.992 76.426,42.414 0,23.422 -34.219,42.414 -76.426,42.414 -42.211,0 -76.43,-18.992 -76.43,-42.414 10e-4,-23.422 34.219,-42.414 76.43,-42.414 z m -409.093,27.086 c 157.348,0 284.918,70.797 284.918,158.102 0,87.328 -127.57,158.121 -284.918,158.121 -157.356,0 -284.926,-70.793 -284.926,-158.121 0,-87.305 127.57,-158.102 284.926,-158.102 z m -445.649,329.629 c 0,-23.414 34.219,-42.406 76.43,-42.406 42.207,0 76.43,18.992 76.43,42.406 0,23.43 -34.223,42.422 -76.43,42.422 -42.211,0 -76.43,-18.992 -76.43,-42.422 z"
   id="path16" />
		<path
   style="fill:#78c898"
   d="m 1075.688,1076.926 c 157.348,0 284.918,-70.793 284.918,-158.121 0,-87.305 -127.57,-158.102 -284.918,-158.102 -157.356,0 -284.926,70.797 -284.926,158.102 0,87.328 127.57,158.121 284.926,158.121 z"
   id="path17" />
		<path
   style="fill:#78c898"
   d="m 782.898,1090.332 c 0,-23.414 -34.223,-42.406 -76.43,-42.406 -42.211,0 -76.43,18.992 -76.43,42.406 0,23.43 34.219,42.422 76.43,42.422 42.208,0 76.43,-18.992 76.43,-42.422 z"
   id="path18" />
		<path
   style="fill:#78c898"
   d="m 1484.781,818.445 c 42.207,0 76.426,-18.992 76.426,-42.414 0,-23.422 -34.219,-42.414 -76.426,-42.414 -42.211,0 -76.43,18.992 -76.43,42.414 10e-4,23.422 34.219,42.414 76.43,42.414 z"
   id="path19" />
		<path
   style="fill:#38a37a"
   d="m 1054.07,839.363 c -16.738,-5.051 -36.106,-1.59 -51.902,5.242 -11.844,5.133 -23.52,11.273 -32.969,20.219 -3.316,3.148 -6.488,6.238 -8.883,10.16 l -2.16,4.207 c -0.309,1.57 -0.961,5.301 -0.844,2.434 -0.098,2.449 -1.152,1.457 1.773,4.297 1.52,1.48 2.625,2.398 3.859,3.066 0.953,-0.961 1.922,-1.906 2.922,-2.852 9.438,-8.945 21.117,-15.086 32.965,-20.215 15.801,-6.84 35.168,-10.297 51.902,-5.254 18.906,5.699 30.66,-14.32 25.242,-28.281 -4.623,6.153 -12.354,9.848 -21.905,6.977 z"
   id="path20" />
		<path
   style="fill:#38a37a"
   d="m 1233.547,965.707 c 0.68,0.434 1.242,0.973 1.852,1.469 2.656,-6.633 4.367,-13.523 4.84,-20.523 -2.949,5.188 -6.711,10.488 -10.773,16.465 1.358,0.863 2.718,1.726 4.081,2.589 z"
   id="path21" />
		<path
   style="fill:#38a37a"
   d="m 914.574,865.082 c 1.305,0.82 2.66,1.555 3.988,2.332 1.078,-3.477 2.512,-6.973 4.41,-10.461 1.398,-2.57 2.965,-5.074 4.629,-7.52 -3.238,-1.859 -6.508,-3.676 -9.684,-5.664 -9.566,-5.98 -12.383,-19.105 -6.363,-28.574 2.863,-4.5 7.258,-7.434 12.09,-8.723 l -0.063,-0.074 c -23.074,5.223 -22.563,24.121 -22.563,24.121 l 4.078,18.324 c 0.408,6.434 3.72,12.63 9.478,16.239 z"
   id="path22" />
		<path
   style="fill:#38a37a"
   d="m 1205.141,927.133 c -2.867,-10.418 -12.992,-17.332 -22.297,-21.801 -24.75,-11.875 -51.426,-8.668 -76.355,0.094 -28.453,10 -59.441,12.723 -88.656,20.48 -24.164,6.41 -57.027,13 -78.984,-3.32 -13.332,-9.906 -21.254,-23.082 -22.367,-37.418 -8.609,22.199 -0.738,44.051 19.023,58.734 21.969,16.316 54.82,9.731 78.988,3.316 29.223,-7.754 59.594,-18.852 89.457,-23.094 23.438,-3.328 85.184,-19.488 94.609,14.633 0.32,1.168 0.473,2.328 0.555,3.488 4.753,-3.811 7.886,-8.339 6.027,-15.112 z"
   id="path23" />
		<path
   style="fill:#38a37a"
   d="m 1211.328,1000.641 c -3.953,-2.516 -7.914,-5.031 -11.871,-7.547 -55.246,38.727 -132.684,37.578 -182.508,-10.516 -1.723,-1.668 -3.035,-3.406 -4.004,-5.188 -6.465,7.102 -8.316,17.824 0.672,26.5 49.824,48.09 127.258,49.242 182.5,10.516 3.961,2.516 7.914,5.031 11.871,7.551 5.16,3.277 15.387,4.578 24.941,-0.723 4.961,-2.75 13.703,-9.293 13.039,-14 l -3.047,-21.637 -0.055,0.008 c -0.332,3.016 -1.25,5.988 -2.965,8.68 -6.049,9.512 -19.061,12.41 -28.573,6.356 z"
   id="path24" />
		<path
   style="fill:#c4e4be"
   d="m 911.555,815.195 c -6.02,9.469 -3.203,22.594 6.363,28.574 3.176,1.988 6.445,3.805 9.684,5.664 -1.664,2.445 -3.23,4.949 -4.629,7.52 -1.898,3.488 -3.332,6.984 -4.41,10.461 -1.863,6.019 -2.531,11.977 -2.082,17.754 1.113,14.336 9.035,27.512 22.367,37.418 21.957,16.32 54.82,9.731 78.984,3.32 29.215,-7.758 60.203,-10.48 88.656,-20.48 24.93,-8.762 51.605,-11.969 76.355,-0.094 9.305,4.469 19.43,11.383 22.297,21.801 1.859,6.773 -1.273,11.301 -6.027,15.113 -5.215,4.191 -12.387,7.523 -17.137,12 -22.5,21.231 -57.012,29.41 -87.086,23.852 -17.773,-3.293 -34.535,-11.094 -47.582,-23.676 -17.402,-16.801 -44.23,4.906 -34.363,22.969 0.969,1.781 2.281,3.52 4.004,5.188 49.824,48.094 127.262,49.242 182.508,10.516 3.957,2.516 7.918,5.031 11.871,7.547 9.512,6.055 22.523,3.156 28.574,-6.355 1.715,-2.692 2.633,-5.664 2.965,-8.68 0.766,-6.883 -1.934,-13.918 -7.469,-18.43 -0.609,-0.496 -1.172,-1.035 -1.852,-1.469 -1.363,-0.863 -2.723,-1.726 -4.082,-2.59 4.063,-5.977 7.824,-11.277 10.773,-16.465 5.898,-10.371 8.516,-20.289 3.504,-34.238 -10.941,-30.398 -41.457,-47.516 -71.762,-53.582 -60.262,-12.059 -116.668,15.953 -173.449,29.242 -9.621,2.25 -21.672,4.523 -30.863,2.477 -2.082,-0.465 -3.469,-0.883 -4.723,-1.563 -1.234,-0.668 -2.34,-1.586 -3.859,-3.066 -2.926,-2.84 -1.871,-1.848 -1.773,-4.297 -0.117,2.867 0.535,-0.863 0.844,-2.434 l 2.16,-4.207 c 2.394,-3.922 5.566,-7.012 8.883,-10.16 9.449,-8.945 21.125,-15.086 32.969,-20.219 15.797,-6.832 35.164,-10.293 51.902,-5.242 9.551,2.871 17.281,-0.824 21.906,-6.977 7.766,-10.344 6.742,-27.633 -9.277,-32.461 -33.418,-10.074 -76.438,-1.195 -108.352,19.969 -1.785,-1.262 -3.598,-2.492 -5.508,-3.644 -4.199,-2.527 -8.547,-4.809 -12.711,-7.41 -5.063,-3.172 -11.047,-3.82 -16.484,-2.367 -4.831,1.288 -9.226,4.221 -12.089,8.721 z"
   id="path25" />
	</g>
</g>
</svg>
