<?xml version="1.0" encoding="UTF-8" standalone="no"?>
<svg
   width="800"
   height="493.41318"
   viewBox="0 -49 256 157.89222"
   version="1.1"
   preserveAspectRatio="xMidYMid"
   id="svg1"
   sodipodi:docname="mdproject_dark.svg"
   inkscape:version="1.4.4 (unknown)"
   xmlns:inkscape="http://www.inkscape.org/namespaces/inkscape"
   xmlns:sodipodi="http://sodipodi.sourceforge.net/DTD/sodipodi-0.dtd"
   xmlns="http://www.w3.org/2000/svg"
   xmlns:svg="http://www.w3.org/2000/svg">
  <defs
     id="defs1" />
  <sodipodi:namedview
     id="namedview1"
     pagecolor="#ffffff"
     bordercolor="#000000"
     borderopacity="0.25"
     inkscape:showpageshadow="2"
     inkscape:pageopacity="0.0"
     inkscape:pagecheckerboard="0"
     inkscape:deskcolor="#d1d1d1"
     inkscape:zoom="1.36875"
     inkscape:cx="400"
     inkscape:cy="246.57534"
     inkscape:window-width="3434"
     inkscape:window-height="1326"
     inkscape:window-x="0"
     inkscape:window-y="63"
     inkscape:window-maximized="1"
     inkscape:current-layer="svg1" />
  <g
     id="g1"
     transform="translate(0,-49)">
    <path
       d="M 238.37126,157.89222 H 18.39521 C 8.4311377,157.89222 0,149.46108 0,139.49701 V 18.39521 C 0,8.4311377 8.4311377,0 18.39521,0 H 237.60479 C 247.56886,0 256,8.4311377 256,18.39521 v 121.1018 c 0,9.96407 -7.66467,18.39521 -17.62874,18.39521 z M 18.39521,12.263473 c -3.065869,0 -6.131737,3.065868 -6.131737,6.131737 v 121.1018 c 0,3.83233 3.065868,6.13173 6.131737,6.13173 h 219.20958 c 3.83234,0 6.13174,-3.06587 6.13174,-6.13173 V 18.39521 c 0,-3.832336 -3.06587,-6.131737 -6.13174,-6.131737 0.76647,0 -219.20958,0 -219.20958,0 z M 36.790419,121.1018 V 36.790419 H 61.317365 L 85.844311,67.449102 110.37126,36.790419 H 134.8982 V 121.1018 H 110.37126 V 72.814371 L 85.844311,103.47305 61.317365,72.814371 V 121.1018 Z m 154.059881,0 -36.79042,-40.622758 h 24.52695 V 36.790419 h 24.52694 v 42.922156 h 24.52695 z"
       fill="#bbbbbb"
       id="path1" />
  </g>
</svg>
