<svg xmlns="http://www.w3.org/2000/svg" viewBox="10 6 80 88" width="100%" height="100%">
  <defs>
    <linearGradient id="bgBubbleGradDark" x1="0%" y1="0%" x2="100%" y2="100%">
      <stop offset="0%" stop-color="#312E81" stop-opacity="0.3" /> <stop offset="100%" stop-color="#2E1065" stop-opacity="0.3" /> </linearGradient>

    <linearGradient id="midBubbleGradDark" x1="0%" y1="0%" x2="100%" y2="100%">
      <stop offset="0%" stop-color="#4338CA" stop-opacity="0.6" /> <stop offset="100%" stop-color="#3730A3" stop-opacity="0.6" /> </linearGradient>

    <linearGradient id="fgBubbleGradDark" x1="0%" y1="0%" x2="100%" y2="100%">
      <stop offset="0%" stop-color="#4F46E5" /> <stop offset="100%" stop-color="#6366F1" /> </linearGradient>

    <filter id="softShadowDark" x="-10%" y="-10%" width="130%" height="130%">
      <feDropShadow dx="0" dy="2" stdDeviation="2" flood-color="#020617" flood-opacity="0.3" />
    </filter>
  </defs>

  <rect width="100" height="100" fill="#111827" />

  <g filter="url(#softShadowDark)">
    <rect x="16" y="14" width="48" height="34" rx="10" fill="url(#bgBubbleGradDark)" />
    <path d="M 22 48 L 16 54 L 20 48 Z" fill="url(#bgBubbleGradDark)" stroke="url(#bgBubbleGradDark)" stroke-width="2" stroke-linejoin="round" />
    <line x1="24" y1="26" x2="44" y2="26" stroke="#94A3B8" stroke-width="2.5" stroke-linecap="round" opacity="0.3" /> <line x1="24" y1="34" x2="54" y2="34" stroke="#94A3B8" stroke-width="2.5" stroke-linecap="round" opacity="0.3" />
  </g>

  <g filter="url(#softShadowDark)">
    <rect x="26" y="27" width="48" height="34" rx="10" fill="url(#midBubbleGradDark)" />
    <path d="M 32 61 L 26 67 L 30 61 Z" fill="url(#midBubbleGradDark)" stroke="url(#midBubbleGradDark)" stroke-width="2" stroke-linejoin="round" />
    <line x1="34" y1="39" x2="54" y2="39" stroke="#E2E8F0" stroke-width="2.5" stroke-linecap="round" opacity="0.5" /> <line x1="34" y1="47" x2="64" y2="47" stroke="#E2E8F0" stroke-width="2.5" stroke-linecap="round" opacity="0.5" />
  </g>

  <g filter="url(#softShadowDark)">
    <rect x="36" y="40" width="48" height="34" rx="10" fill="url(#fgBubbleGradDark)" />
    <path d="M 42 74 L 36 80 L 40 74 Z" fill="url(#fgBubbleGradDark)" stroke="url(#fgBubbleGradDark)" stroke-width="2" stroke-linejoin="round" />
    <line x1="44" y1="52" x2="64" y2="52" stroke="#F1F5F9" stroke-width="2.5" stroke-linecap="round" /> <line x1="44" y1="60" x2="74" y2="60" stroke="#F1F5F9" stroke-width="2.5" stroke-linecap="round" />
  </g>
</svg>
