<svg xmlns="http://www.w3.org/2000/svg" viewBox="10 6 80 88" width="100%" height="100%">
  <defs>
    <linearGradient id="bgBubbleGrad" x1="0%" y1="0%" x2="100%" y2="100%">
      <stop offset="0%" stop-color="#6366F1" stop-opacity="0.4" />
      <stop offset="100%" stop-color="#4F46E5" stop-opacity="0.4" />
    </linearGradient>

    <linearGradient id="midBubbleGrad" x1="0%" y1="0%" x2="100%" y2="100%">
      <stop offset="0%" stop-color="#6366F1" stop-opacity="0.7" />
      <stop offset="100%" stop-color="#4F46E5" stop-opacity="0.7" />
    </linearGradient>

    <linearGradient id="fgBubbleGrad" x1="0%" y1="0%" x2="100%" y2="100%">
      <stop offset="0%" stop-color="#6366F1" />
      <stop offset="100%" stop-color="#4F46E5" />
    </linearGradient>

    <filter id="softShadow" x="-10%" y="-10%" width="130%" height="130%">
      <feDropShadow dx="0" dy="2" stdDeviation="2" flood-color="#0F172A" flood-opacity="0.15" />
    </filter>
  </defs>

  <g filter="url(#softShadow)">
    <rect x="16" y="14" width="48" height="34" rx="10" fill="url(#bgBubbleGrad)" />
    <path d="M 22 48 L 16 54 L 20 48 Z" fill="url(#bgBubbleGrad)" stroke="url(#bgBubbleGrad)" stroke-width="2" stroke-linejoin="round" />
    <line x1="24" y1="26" x2="44" y2="26" stroke="#FFFFFF" stroke-width="2.5" stroke-linecap="round" opacity="0.3" />
    <line x1="24" y1="34" x2="54" y2="34" stroke="#FFFFFF" stroke-width="2.5" stroke-linecap="round" opacity="0.3" />
  </g>

  <g filter="url(#softShadow)">
    <rect x="26" y="27" width="48" height="34" rx="10" fill="url(#midBubbleGrad)" />
    <path d="M 32 61 L 26 67 L 30 61 Z" fill="url(#midBubbleGrad)" stroke="url(#midBubbleGrad)" stroke-width="2" stroke-linejoin="round" />
    <line x1="34" y1="39" x2="54" y2="39" stroke="#FFFFFF" stroke-width="2.5" stroke-linecap="round" opacity="0.5" />
    <line x1="34" y1="47" x2="64" y2="47" stroke="#FFFFFF" stroke-width="2.5" stroke-linecap="round" opacity="0.5" />
  </g>

  <g filter="url(#softShadow)">
    <rect x="36" y="40" width="48" height="34" rx="10" fill="url(#fgBubbleGrad)" />
    <path d="M 42 74 L 36 80 L 40 74 Z" fill="url(#fgBubbleGrad)" stroke="url(#fgBubbleGrad)" stroke-width="2" stroke-linejoin="round" />
    <line x1="44" y1="52" x2="64" y2="52" stroke="#FFFFFF" stroke-width="2.5" stroke-linecap="round" />
    <line x1="44" y1="60" x2="74" y2="60" stroke="#FFFFFF" stroke-width="2.5" stroke-linecap="round" />
  </g>
</svg>
