<svg width="32" height="32" id="emoji" viewBox="0 0 72 72" xmlns="http://www.w3.org/2000/svg">
  <g id="color">
    <circle cx="36" cy="36" r="8" fill="#d0cfce"/>
  </g>
  <g id="line">
    <path fill="none" stroke="#000" stroke-linecap="round" stroke-linejoin="round" stroke-miterlimit="10" stroke-width="2" d="M43.1,36c0,3.9-3.2,7.1-7.1,7.1s-7.1-3.2-7.1-7.1s3.2-7.1,7.1-7.1S43.1,32.1,43.1,36z"/>
    <path fill="none" stroke="#000" stroke-linecap="round" stroke-linejoin="round" stroke-miterlimit="10" stroke-width="2" d="M60.1,33.1v5.8l-5.6,1.4c-0.4,1.6-1.1,3.1-2.1,4.4l3.1,4.7l-4.1,4.1l-4.7-3.1c-1.3,0.9-2.8,1.7-4.4,2.1l-1.4,5.6h-5.8l-1.4-5.6 c-1.6-0.4-3.1-1.1-4.4-2.1l-4.7,3.1l-4.1-4.1l3.1-4.7c-0.9-1.3-1.7-2.8-2.1-4.4l-5.6-1.4v-5.8l5.6-1.4c0.4-1.6,1.1-3.1,2.1-4.4 l-3.1-4.7l4.1-4.1l4.7,3.1c1.3-0.9,2.8-1.7,4.4-2.1l1.4-5.6h5.8l1.4,5.6c1.6,0.4,3.1,1.1,4.4,2.1l4.7-3.1l4.1,4.1l-3.1,4.7 c0.9,1.3,1.7,2.8,2.1,4.4L60.1,33.1z"/>
  </g>
</svg>
