<?xml version="1.0" encoding="UTF-8" standalone="no"?>
<svg
   width="18.676685"
   height="19.200003"
   viewBox="0 0 18.676685 19.200003"
   version="1.1"
   id="svg1"
   sodipodi:docname="settings_dark.svg"
   xmlns:inkscape="http://www.inkscape.org/namespaces/inkscape"
   xmlns:sodipodi="http://sodipodi.sourceforge.net/DTD/sodipodi-0.dtd"
   xmlns="http://www.w3.org/2000/svg"
   xmlns:svg="http://www.w3.org/2000/svg">
  <defs
     id="defs1" />
  <sodipodi:namedview
     id="namedview1"
     pagecolor="#ffffff"
     bordercolor="#000000"
     borderopacity="0.25"
     inkscape:showpageshadow="2"
     inkscape:pageopacity="0.0"
     inkscape:pagecheckerboard="0"
     inkscape:deskcolor="#d1d1d1" />
  <path
     fill="#cccccc"
     d="m 16.478342,10.540003 c 0.04,-0.3 0.06,-0.61 0.06,-0.94 0,-0.32 -0.02,-0.64 -0.07,-0.94 l 2.03,-1.58 a 0.49,0.49 0 0 0 0.12,-0.61 l -1.92,-3.32 a 0.488,0.488 0 0 0 -0.59,-0.22 l -2.39,0.96 c -0.5,-0.38 -1.03,-0.7 -1.62,-0.94 l -0.36,-2.54000005 A 0.484,0.484 0 0 0 11.258342,2.9505964e-6 H 7.4183422 c -0.24,0 -0.43,0.1699999994036 -0.47,0.4099999994036 l -0.36,2.54000005 c -0.59,0.24 -1.13,0.57 -1.62,0.94 l -2.39,-0.96 c -0.22,-0.08 -0.47,0 -0.59,0.22 l -1.90999996,3.32 c -0.12,0.21 -0.08,0.47 0.12,0.61 l 2.02999996,1.58 c -0.05,0.3 -0.09,0.63 -0.09,0.94 0,0.31 0.02,0.64 0.07,0.94 l -2.02999996,1.58 a 0.49,0.49 0 0 0 -0.12,0.61 l 1.91999996,3.32 c 0.12,0.22 0.37,0.29 0.59,0.22 l 2.39,-0.96 c 0.5,0.38 1.03,0.7 1.62,0.94 l 0.36,2.54 c 0.05,0.24 0.24,0.41 0.48,0.41 h 3.8399998 c 0.24,0 0.44,-0.17 0.47,-0.41 l 0.36,-2.54 c 0.59,-0.24 1.13,-0.56 1.62,-0.94 l 2.39,0.96 c 0.22,0.08 0.47,0 0.59,-0.22 l 1.92,-3.32 c 0.12,-0.22 0.07,-0.47 -0.12,-0.61 z m -7.1399998,2.66 c -1.98,0 -3.6,-1.62 -3.6,-3.6 0,-1.98 1.62,-3.6 3.6,-3.6 1.9799998,0 3.5999998,1.62 3.5999998,3.6 0,1.98 -1.62,3.6 -3.5999998,3.6 z"
     id="path1" />
</svg>
