<svg width="32" height="32" id="emoji" viewBox="0 0 72 72" xmlns="http://www.w3.org/2000/svg">
  <g id="color">
    <path fill="#3F51B5" d="M36,6.3c13.1,4.4,24.3,3.7,24.3,3.7s1,26.7-5.1,38.2c-5.5,10.2-19.2,17.5-19.2,17.5S22.3,58.4,16.8,48.2 C10.7,36.7,11.7,10,11.7,10S22.9,10.7,36,6.3z"/>
  </g>
  <g id="line">
    <path fill="none" stroke="#000000" stroke-linecap="round" stroke-linejoin="round" stroke-miterlimit="10" stroke-width="2" d="M36,6.3c13.1,4.4,24.3,3.7,24.3,3.7s1,26.7-5.1,38.2c-5.5,10.2-19.2,17.5-19.2,17.5S22.3,58.4,16.8,48.2 C10.7,36.7,11.7,10,11.7,10S22.9,10.7,36,6.3z"/>
    <path fill="none" stroke="#000000" stroke-linecap="round" stroke-linejoin="round" stroke-miterlimit="10" stroke-width="2" d="M36,6.3v59.4"/>
  </g>
</svg>
