<svg width="32" height="32" id="emoji" viewBox="0 0 72 72" xmlns="http://www.w3.org/2000/svg">
  <g id="color">
    <path fill="#D22F27" d="M57.4,51.8L41.6,36L57.4,20.2c1.6-1.6,1.6-4.1,0-5.7c-1.6-1.6-4.1-1.6-5.7,0L36,30.4L20.3,14.6 c-1.6-1.6-4.1-1.6-5.7,0c-1.6,1.6-1.6,4.1,0,5.7L30.4,36L14.6,51.8c-1.6,1.6-1.6,4.1,0,5.7c1.6,1.6,4.1,1.6,5.7,0L36,41.6l15.8,15.8 c1.6,1.6,4.1,1.6,5.7,0C58.9,55.9,58.9,53.3,57.4,51.8z"/>
  </g>
  <g id="line">
    <path fill="none" stroke="#000000" stroke-linecap="round" stroke-linejoin="round" stroke-miterlimit="10" stroke-width="2" d="M57.4,51.8L41.6,36L57.4,20.2c1.6-1.6,1.6-4.1,0-5.7c-1.6-1.6-4.1-1.6-5.7,0L36,30.4L20.3,14.6 c-1.6-1.6-4.1-1.6-5.7,0c-1.6,1.6-1.6,4.1,0,5.7L30.4,36L14.6,51.8c-1.6,1.6-1.6,4.1,0,5.7c1.6,1.6,4.1,1.6,5.7,0L36,41.6l15.8,15.8 c1.6,1.6,4.1,1.6,5.7,0C58.9,55.9,58.9,53.3,57.4,51.8z"/>
  </g>
</svg>
